<?xml version="1.0" encoding="iso-8859-1"?>
<!-- Generator: Adobe Illustrator 19.0.0, SVG Export Plug-In . SVG Version: 6.00 Build 0)  -->
<svg version="1.1" id="Capa_1" xmlns="http://www.w3.org/2000/svg" xmlns:xlink="http://www.w3.org/1999/xlink" x="0px" y="0px"
	 viewBox="0 0 456.488 456.488" style="enable-background:new 0 0 456.488 456.488;" xml:space="preserve">
<g>
	<g id="XMLID_26_">
		<path id="XMLID_27_" d="M29.369,85.016c44.73,8.138,5.337,60.343,5.313,95.338c-0.012,17.77,4.989,30.15,12.099,38.796
			c5.285-1.621,10.802-2.462,16.397-2.462h0.002c5.782,0,11.42,0.889,16.767,2.552c-8.077-19.191-6.49-43.796,2.273-59.66
			c11.065-20.031,9.604-33.24,3.265-49.913c-1.135-2.985,1.796-5.988,4.775-4.835c18.936,7.328,32.779,32.502,32.216,54.892
			c-0.071,2.837,2.955,4.715,5.454,3.371c5.317-2.858,12.515-8.545,14.144-18.832c0.3-1.896,1.911-3.36,3.827-3.247
			c10.64,0.627,20.768,7.78,28.556,18.425c1.55-15.108,9.175-29.461,22.026-39.133c-6.012-9.961-14.152-19.423-24.761-27.589
			c3.112-7.315,8.191-13.748,13.833-17.471c10.861-7.166,13.612-14.203,14.821-24.273c0.217-1.803,2.485-2.541,3.681-1.174
			c7.601,8.69,7.926,25.021,1.731,36.147c-0.785,1.41,0.243,3.154,1.857,3.138c3.432-0.036,8.558-0.999,12.094-5.749
			c0.652-0.875,1.849-1.187,2.784-0.625c7.315,4.402,10.704,15.053,9.815,26.346c5.574,0.208,10.996,1.222,16.129,2.978
			c7.359-15.558,8.449-38.731-8.287-59.937c-20.207-25.605-10.638-42.243-5.186-48.528c1.135-1.309,0.282-3.364-1.446-3.489
			c-8.32-0.603-26.593,1.457-36.43,28.54c-0.02,0.056-0.033,0.115-0.052,0.171c-4.103-5.481-11.12-7.812-16.768-8.795
			c-2.15-0.374-3.392,2.407-1.671,3.75c20.376,15.907-13.243,31.796-22.494,49.412c-1.446,2.753-2.511,5.372-3.265,7.864
			c-1.46-0.723-2.939-1.432-4.463-2.112c-52.388-23.381-51.07-57.114-47.71-71.357c0.7-2.966-2.307-5.47-5.102-4.254
			C82.142,9.155,55.36,27.288,62.153,77.508c0.014,0.103,0.042,0.205,0.058,0.308c-10.867-5.187-23.701-3.088-33.302-0.006
			C25.255,78.984,25.592,84.33,29.369,85.016z"/>
		<path id="XMLID_452_" d="M210.947,135.181c-16.529,10.657-21.289,32.696-10.632,49.225c6.81,10.562,18.265,16.317,29.961,16.317
			c6.609,0,13.296-1.838,19.263-5.686c16.529-10.657,21.289-32.696,10.632-49.224c-6.81-10.562-18.265-16.318-29.962-16.317
			C223.601,129.496,216.914,131.334,210.947,135.181z"/>
		<path id="XMLID_453_" d="M63.178,237.191c-6.609,0-13.296,1.838-19.263,5.686c-16.529,10.657-21.289,32.696-10.632,49.224
			c6.81,10.562,18.265,16.318,29.962,16.318c6.609,0,13.296-1.838,19.263-5.686c16.529-10.657,21.289-32.696,10.632-49.225
			C86.33,242.947,74.875,237.19,63.178,237.191z"/>
		<circle id="XMLID_454_" cx="427.728" cy="377.594" r="26.557"/>
		<path id="XMLID_455_" d="M397.1,400.249c0-0.001,0-0.001,0-0.002c-2.793-13.818-3.513-17.381-6.339-31.358
			c0-0.001,0-0.001-0.001-0.002c-1.958-9.679-11.455-15.985-21.138-14.028l-49.649,10.036l-24.306,4.913l-69.966-18.884
			c-2.574-0.695-5.287-0.709-7.871-0.037l-70.828,18.39c-8.219,2.134-13.153,10.527-11.018,18.747
			c0.917,3.541,3.001,6.466,5.73,8.485c3.772-5.817,9.497-9.954,16.249-11.707l70.825-18.389c5.043-1.311,11.514-1.252,16.243,0.825
			l37.708,22.72l-42.984-11.601l-0.002-0.001c-2.599-0.702-5.338-0.693-7.871-0.037l-70.828,18.389
			c-9.251,2.402-14.215,12.66-10.01,21.5c3.104,6.524,10.479,10.151,17.736,8.267c0.001,0,0.001,0,0.002-0.001l66.888-17.366
			l44.407,11.985c4.157-2.643,9.038-4.02,14.112-3.89c10.922,0.291,2.394,0.064,39.616,1.056c2.799-2.37,27.73-23.473,32.41-27.434
			l-28.045,39.856l0,0c-1.097-0.029-44.31-1.181-44.31-1.181c-7.079-0.184-12.961,5.426-13.149,12.468
			c-0.189,7.099,5.418,12.964,12.468,13.151l51.177,1.364h0.001c4.116,0.109,8.305-1.88,10.805-5.417
			c0.005-0.007,0.01-0.012,0.015-0.019l30.969-44.012l-6.013,14.945l2.939-0.594C392.885,419.401,399.023,409.772,397.1,400.249z"/>
		<path id="XMLID_464_" d="M115.728,350.057l20.269,10.75c2.411-1.531,5.069-2.699,7.913-3.437l24.647-6.399l-5.519-2.927
			l77.758-50.135l25.951,40.249l-12.139,7.827l31.148,8.407l83.673-53.949c4.141-2.67,5.867-7.862,4.149-12.479l-31.251-84.008
			l-25.242-40.033c7.334-7.624,8.766-19.544,2.785-28.822c-6.987-10.836-21.436-13.957-32.272-6.97l-10.195,6.573
			c16.795,26.049,9.336,60.745-16.753,77.565c-25.859,16.673-60.66,9.468-77.566-16.753l0,0l-72.713,46.883l0,0
			c16.786,26.034,9.2,60.832-16.753,77.565c-25.859,16.673-60.66,9.467-77.566-16.753l-3.152,2.032
			c-10.837,6.987-13.957,21.436-6.97,32.272c5.508,8.542,15.652,12.285,25.009,10.066l6.069,9.412
			c11.021,17.094,33.813,22.017,50.907,10.995L115.728,350.057z M330.27,240.219l17.096,45.958l-60.495,39.005l-25.951-40.249
			L330.27,240.219z"/>
	</g>
</g>
<g>
</g>
<g>
</g>
<g>
</g>
<g>
</g>
<g>
</g>
<g>
</g>
<g>
</g>
<g>
</g>
<g>
</g>
<g>
</g>
<g>
</g>
<g>
</g>
<g>
</g>
<g>
</g>
<g>
</g>
</svg>
